<?xml version="1.0" encoding="utf-8"?>
<!-- Generator: Adobe Illustrator 21.1.0, SVG Export Plug-In . SVG Version: 6.00 Build 0)  -->
<svg version="1.1" id="Layer_1" xmlns="http://www.w3.org/2000/svg" xmlns:xlink="http://www.w3.org/1999/xlink" x="0px" y="0px"
	 viewBox="0 0 44.4 40.8" style="enable-background:new 0 0 44.4 40.8;" xml:space="preserve">
<style type="text/css">
	.st0{fill:#2E3048;}
	.st1{fill:#FAA74A;}
	.st2{fill:#FFFFFF;stroke:#FAA74B;stroke-linecap:round;stroke-linejoin:round;stroke-miterlimit:10;}
	.st3{fill:#FFFFFF;stroke:#FAA74B;stroke-width:2;stroke-linecap:round;stroke-linejoin:round;stroke-miterlimit:10;}
	.st4{fill:#FFFFFF;}
	.st5{fill:none;stroke:#FFDDB9;stroke-width:2;stroke-linecap:round;stroke-miterlimit:10;}
	.st6{fill:none;stroke:#FFDDB9;stroke-linecap:round;stroke-miterlimit:10;}
	.st7{fill:none;stroke:#FAA74B;stroke-width:2;stroke-linecap:round;stroke-linejoin:round;stroke-miterlimit:10;}
	.st8{fill:#FFDDB9;}
	.st9{fill:#FAA74B;}
	.st10{opacity:0.35;fill:#FAA74B;}
</style>
<g>
	<path class="st2" d="M38.1,32.3C40.6,29,42,25,42,20.6c0-0.6,0-1.2-0.1-1.8C41,8.8,32.6,0.9,22.3,0.9c-3.3,0-6.5,0.8-9.2,2.3
		C6.9,6.5,2.6,13.1,2.6,20.6c0,4.4,1.4,8.4,3.8,11.7"/>
	<path class="st3" d="M41.9,18.9C41,8.9,32.6,1,22.3,1c-3.3,0-6.5,0.8-9.2,2.3"/>
	<circle class="st2" cx="42.1" cy="19.4" r="1.9"/>
	<circle class="st2" cx="13.2" cy="3.1" r="1.9"/>
	<rect x="32" y="2.4" transform="matrix(0.8232 0.5677 -0.5677 0.8232 8.3423 -18.0333)" class="st2" width="2.3" height="4"/>
	<circle class="st10" cx="22.3" cy="20.4" r="12.6"/>
	<g>
		<polyline class="st3" points="32.5,39.8 28.6,35.9 24.7,39.8 		"/>
		<polyline class="st3" points="12.1,35.9 16,39.8 19.9,35.9 		"/>
	</g>
	<g>
		<path class="st9" d="M21.8,15.8v0.5c0,0.1,0,0.3,0,0.4c0,0.1-0.1,0.2-0.1,0.2l-3.8,7.7c-0.1,0.1-0.1,0.2-0.2,0.3
			C17.5,25,17.4,25,17.2,25h-0.8l3.9-7.6c0.1-0.1,0.1-0.2,0.2-0.3c0.1-0.1,0.1-0.2,0.2-0.3h-4.8c-0.1,0-0.1,0-0.2-0.1
			c-0.1-0.1-0.1-0.1-0.1-0.2v-0.8H21.8z"/>
		<path class="st9" d="M28.7,24c0.1,0,0.2,0,0.3,0.1c0.1,0.1,0.1,0.2,0.1,0.3V25h-6.1v-0.4c0-0.1,0-0.2,0.1-0.3
			c0-0.1,0.1-0.2,0.2-0.2l3-3c0.2-0.2,0.5-0.5,0.7-0.7c0.2-0.2,0.4-0.5,0.5-0.7c0.1-0.2,0.3-0.5,0.3-0.7c0.1-0.2,0.1-0.5,0.1-0.8
			c0-0.3,0-0.5-0.1-0.7c-0.1-0.2-0.2-0.4-0.4-0.5c-0.1-0.1-0.3-0.2-0.5-0.3c-0.2-0.1-0.4-0.1-0.6-0.1c-0.2,0-0.5,0-0.6,0.1
			c-0.2,0.1-0.4,0.2-0.5,0.3c-0.2,0.1-0.3,0.3-0.4,0.4c-0.1,0.2-0.2,0.4-0.2,0.6c-0.1,0.2-0.1,0.3-0.2,0.3s-0.2,0.1-0.4,0l-0.6-0.1
			c0.1-0.4,0.2-0.8,0.4-1.1c0.2-0.3,0.4-0.6,0.7-0.8c0.3-0.2,0.6-0.4,0.9-0.5c0.3-0.1,0.7-0.2,1.1-0.2c0.4,0,0.8,0.1,1.1,0.2
			c0.3,0.1,0.6,0.3,0.9,0.5c0.2,0.2,0.4,0.5,0.6,0.8c0.1,0.3,0.2,0.7,0.2,1.1c0,0.3-0.1,0.7-0.2,1c-0.1,0.3-0.2,0.6-0.4,0.8
			c-0.2,0.3-0.4,0.5-0.6,0.8c-0.2,0.3-0.5,0.5-0.7,0.8l-2.4,2.5c0.2,0,0.3-0.1,0.5-0.1c0.2,0,0.3,0,0.5,0H28.7z"/>
	</g>
	<g>
		<circle class="st4" cx="31.3" cy="17" r="1.3"/>
		<path class="st9" d="M31.3,16.2c0.5,0,0.8,0.4,0.8,0.8c0,0.5-0.4,0.8-0.8,0.8s-0.8-0.4-0.8-0.8C30.5,16.6,30.8,16.2,31.3,16.2
			 M31.3,15.2c-1,0-1.8,0.8-1.8,1.8s0.8,1.8,1.8,1.8c1,0,1.8-0.8,1.8-1.8S32.3,15.2,31.3,15.2L31.3,15.2z"/>
	</g>
	<rect y="18.9" class="st4" width="2.1" height="2.6"/>
</g>
</svg>
