<?xml version="1.0" encoding="utf-8"?>
<!-- Generator: Adobe Illustrator 21.1.0, SVG Export Plug-In . SVG Version: 6.00 Build 0)  -->
<svg version="1.1" id="Layer_1" xmlns="http://www.w3.org/2000/svg" xmlns:xlink="http://www.w3.org/1999/xlink" x="0px" y="0px"
	 viewBox="0 0 144 144" style="enable-background:new 0 0 144 144;" xml:space="preserve">
<style type="text/css">
	.st0{fill:#2E3048;}
	.st1{fill:#FAA74A;}
	.st2{fill:#FFFFFF;}
	.st3{fill:#FFFFFF;stroke:#FAA74B;stroke-linecap:round;stroke-linejoin:round;stroke-miterlimit:10;}
	.st4{fill:none;stroke:#FFDDB9;stroke-width:2;stroke-linecap:round;stroke-miterlimit:10;}
	.st5{fill:none;stroke:#FFDDB9;stroke-linecap:round;stroke-miterlimit:10;}
	.st6{fill:none;stroke:#FAA74B;stroke-width:2;stroke-linecap:round;stroke-linejoin:round;stroke-miterlimit:10;}
	.st7{fill:#FFDDB9;}
	.st8{fill:#FAA74B;}
	.st9{fill:#FFFFFF;stroke:#FAA74B;stroke-width:2;stroke-linecap:round;stroke-linejoin:round;stroke-miterlimit:10;}
	.st10{opacity:0.35;fill:#FAA74B;}
	.st11{fill:none;stroke:#FFDDB9;stroke-linecap:round;stroke-linejoin:round;stroke-miterlimit:10;}
	.st12{clip-path:url(#SVGID_2_);}
	.st13{fill:#FFDDB9;stroke:#FFDDB9;stroke-linecap:round;stroke-linejoin:round;stroke-miterlimit:10;}
	.st14{fill:none;stroke:#FAA74B;stroke-linecap:round;stroke-linejoin:round;stroke-miterlimit:10;}
	.st15{fill:#FFFFFF;stroke:#FFDDB9;stroke-linecap:round;stroke-linejoin:round;stroke-miterlimit:10;}
	.st16{fill:none;stroke:#FAA74B;stroke-width:2;stroke-linejoin:round;stroke-miterlimit:10;}
	.st17{fill:#FFFFFF;stroke:#FAA74B;stroke-width:2;stroke-linejoin:round;stroke-miterlimit:10;}
	.st18{fill:#FEDDB9;stroke:#FAA74B;stroke-linecap:round;stroke-linejoin:round;stroke-miterlimit:10;}
	.st19{clip-path:url(#SVGID_4_);}
</style>
<g>
	<circle class="st7" cx="72.1" cy="72.2" r="37.4"/>
	<rect x="30.8" y="57.9" class="st9" width="59.5" height="42"/>
	<polyline class="st9" points="122.4,99.8 90.3,99.8 90.3,42.1 119.8,42.1 	"/>
	<polyline class="st9" points="38.6,99.1 38.6,65.3 82.2,65.3 82.2,99.1 	"/>
	<polyline class="st3" points="122.4,43.2 85.2,43.2 85.2,40.3 122.4,40.3 	"/>
	<rect x="98.6" y="72.5" class="st6" width="16" height="16.6"/>
	<line class="st6" x1="96.6" y1="89.1" x2="116.7" y2="89.1"/>
	<rect x="98.6" y="49.4" class="st6" width="16" height="16.6"/>
	<line class="st6" x1="96.6" y1="65.9" x2="116.7" y2="65.9"/>
	<line class="st9" x1="38.7" y1="79.6" x2="44.3" y2="79.6"/>
	<g>
		<line class="st14" x1="57.8" y1="84.8" x2="57.8" y2="87.8"/>
		<line class="st14" x1="62.9" y1="84.8" x2="62.9" y2="87.8"/>
	</g>
	<line class="st9" x1="38.7" y1="92.2" x2="44.3" y2="92.2"/>
	<line class="st9" x1="76.6" y1="79.6" x2="82.2" y2="79.6"/>
	<line class="st9" x1="76.6" y1="92.2" x2="82.2" y2="92.2"/>
	<line class="st11" x1="60.5" y1="65.3" x2="60.5" y2="99.9"/>
	<polyline class="st6" points="38.6,99.1 38.6,65.3 82.3,65.3 82.3,99.1 	"/>
	<rect x="30.8" y="57.9" class="st6" width="59.5" height="42"/>
	<circle class="st15" cx="28.9" cy="92.7" r="5.6"/>
	<circle class="st15" cx="32.1" cy="96.8" r="5.6"/>
	<circle class="st15" cx="24.8" cy="97.5" r="5.6"/>
	<circle class="st15" cx="92.5" cy="95.9" r="5.6"/>
	<circle class="st15" cx="96.6" cy="91.1" r="5.6"/>
	<circle class="st15" cx="100.7" cy="96.6" r="5.6"/>
	<rect x="26.4" y="54.9" class="st3" width="63.9" height="2.9"/>
	<g>
		<rect x="42.3" y="70.2" class="st14" width="11.1" height="4.2"/>
		<rect x="43.9" y="71.1" class="st7" width="7.8" height="2.4"/>
		<g>
			<line class="st3" x1="47.8" y1="70.3" x2="47.8" y2="74.3"/>
			<line class="st3" x1="52.9" y1="72.3" x2="42.7" y2="72.3"/>
		</g>
	</g>
	<g>
		<rect x="54.9" y="70.2" class="st14" width="11.1" height="4.2"/>
		<rect x="56.6" y="71.1" class="st7" width="7.7" height="2.4"/>
		<g>
			<line class="st3" x1="60.5" y1="70.3" x2="60.5" y2="74.3"/>
			<line class="st3" x1="65.6" y1="72.3" x2="55.4" y2="72.3"/>
		</g>
	</g>
	<g>
		<rect x="67.6" y="70.2" class="st14" width="11.1" height="4.2"/>
		<rect x="69.1" y="71.1" class="st7" width="8" height="2.4"/>
		<g>
			<line class="st3" x1="73.1" y1="70.3" x2="73.1" y2="74.3"/>
			<line class="st3" x1="78.2" y1="72.3" x2="68" y2="72.3"/>
		</g>
	</g>
	<rect x="100.7" y="51.3" class="st7" width="11.7" height="12.5"/>
	<rect x="100.7" y="74.6" class="st7" width="11.7" height="12.5"/>
	<line class="st14" x1="106.6" y1="49.5" x2="106.6" y2="65.8"/>
	<line class="st14" x1="114.8" y1="57.7" x2="98.5" y2="57.7"/>
	<line class="st14" x1="106.6" y1="72.7" x2="106.6" y2="89"/>
	<line class="st14" x1="114.8" y1="80.8" x2="98.5" y2="80.8"/>
</g>
</svg>
