<?xml version="1.0" encoding="utf-8"?>
<!-- Generator: Adobe Illustrator 21.1.0, SVG Export Plug-In . SVG Version: 6.00 Build 0)  -->
<svg version="1.1" id="Layer_1" xmlns="http://www.w3.org/2000/svg" xmlns:xlink="http://www.w3.org/1999/xlink" x="0px" y="0px"
	 viewBox="0 0 332.5 112.5" style="enable-background:new 0 0 332.5 112.5;" xml:space="preserve">
<style type="text/css">
	.st0{fill:#FFFFFF;}
	.st1{fill:#F7AD36;}
</style>
<path class="st0" d="M10.8,40.2"/>
<g>
	<path class="st1" d="M289.8,0c-28.8,0-23,25.5-17.8,30.8c0-18.2,9.5-20.8,17.2-20.8c24.2,0,22.4,30.2,22.4,30.2
		c0,8-2.4,14.3-7,18.9c-9,8.9-23.7,8.6-23.9,8.6l-0.6,0l-0.3,0.1c-0.5,0-3.5,0.2-8.5-1.6c-5.2-1.9-13.5-6.3-23.9-16.7
		c-22-22-34.4-28.7-53-28.7c-13.5,0-23.7,7.7-28.2,11.9c-4.5-4.2-14.7-11.9-28.2-11.9c-18.6,0-31,6.7-53,28.7
		C74.6,59.8,66.3,64.3,61.1,66.2c-5,1.8-8.1,1.7-8.5,1.6l-0.3-0.1l-0.6,0c-0.1,0-14.9,0.2-23.9-8.6c-4.6-4.6-7-10.9-7-18.9
		c0,0-1.9-30.2,22.4-30.2c7.8,0,17.2,2.5,17.2,20.8C65.6,25.5,71.4,0,42.6,0S0,28.5,0,42.5c0,17.2,8.2,34.4,22.4,47.2
		c11.6,10.4,32.8,22.8,67.8,22.8c31.8,0,51.8-13.7,62.9-25.3c6.2-6.4,10.4-12.8,13-17.6c2.7,4.8,6.8,11.2,13,17.6
		c11.1,11.5,31.1,25.3,62.9,25.3c35,0,56.2-12.4,67.8-22.8c14.3-12.8,22.4-30,22.4-47.2C332.5,28.5,318.6,0,289.8,0z"/>
	<path class="st0" d="M138,30.8"/>
	<path class="st0" d="M33.1,83.8c0,0,32.2,28.5,76.8,14.8c44.5-13.7,50-36.3,49.8-45.8C154.9,60.2,103.8,114.2,33.1,83.8z"/>
	<path class="st0" d="M26.1,74.9c0,0,23.3,27.3,86.5,3.7c25.3-9,39.5-32.8,39.5-32.8s-11.3,2.8-44.5,22.7
		C84.8,80.8,61.9,94.6,26.1,74.9z"/>
	<path class="st0" d="M138,30.8c5,0,9.2,3.2,12.9,5.2c0,0-15.2,4-34.3,18.2c0,0-48.5,38.5-76,22.3c5.3,1.2,9.5,1.3,10.9,1.3
		c0.4,0,1,0.1,1.8,0.1c5.5,0,19.7-2.2,38.8-21.3C114.1,34.5,124,30.8,138,30.8"/>
	<path class="st0" d="M299.4,83.8c0,0-32.2,28.5-76.8,14.8c-44.5-13.7-50-36.3-49.8-45.8C177.5,60.2,228.7,114.2,299.4,83.8z"/>
	<path class="st0" d="M306.4,74.9c0,0-23.3,27.3-86.5,3.7c-25.3-9-39.5-32.8-39.5-32.8s11.3,2.8,44.5,22.7
		C247.7,80.8,270.5,94.6,306.4,74.9z"/>
	<path class="st0" d="M194.5,30.8c-5,0-9.2,3.2-12.9,5.2c0,0,15.2,4,34.3,18.2c0,0,48.5,38.5,76,22.3c-5.3,1.2-9.5,1.3-10.9,1.3
		c-0.4,0-1,0.1-1.8,0.1c-5.5,0-19.7-2.2-38.8-21.3C218.4,34.5,208.4,30.8,194.5,30.8"/>
</g>
</svg>
