<?xml version="1.0" encoding="utf-8"?>
<!-- Generator: Adobe Illustrator 21.1.0, SVG Export Plug-In . SVG Version: 6.00 Build 0)  -->
<svg version="1.1" id="Layer_1" xmlns="http://www.w3.org/2000/svg" xmlns:xlink="http://www.w3.org/1999/xlink" x="0px" y="0px"
	 viewBox="0 0 144 144" style="enable-background:new 0 0 144 144;" xml:space="preserve">
<style type="text/css">
	.st0{fill:#2E3048;}
	.st1{fill:#FAA74A;}
	.st2{fill:#FFFFFF;}
	.st3{fill:#FFFFFF;stroke:#FAA74B;stroke-linecap:round;stroke-linejoin:round;stroke-miterlimit:10;}
	.st4{fill:none;stroke:#FFDDB9;stroke-width:2;stroke-linecap:round;stroke-miterlimit:10;}
	.st5{fill:none;stroke:#FFDDB9;stroke-linecap:round;stroke-miterlimit:10;}
	.st6{fill:none;stroke:#FAA74B;stroke-width:2;stroke-linecap:round;stroke-linejoin:round;stroke-miterlimit:10;}
	.st7{fill:#FFDDB9;}
	.st8{fill:#FAA74B;}
	.st9{fill:#FFFFFF;stroke:#FAA74B;stroke-width:2;stroke-linecap:round;stroke-linejoin:round;stroke-miterlimit:10;}
	.st10{opacity:0.35;fill:#FAA74B;}
	.st11{fill:none;stroke:#FFDDB9;stroke-linecap:round;stroke-linejoin:round;stroke-miterlimit:10;}
	.st12{clip-path:url(#SVGID_2_);}
	.st13{fill:#FFDDB9;stroke:#FFDDB9;stroke-linecap:round;stroke-linejoin:round;stroke-miterlimit:10;}
	.st14{fill:none;stroke:#FAA74B;stroke-linecap:round;stroke-linejoin:round;stroke-miterlimit:10;}
	.st15{fill:#FFFFFF;stroke:#FFDDB9;stroke-linecap:round;stroke-linejoin:round;stroke-miterlimit:10;}
	.st16{fill:none;stroke:#FAA74B;stroke-width:2;stroke-linejoin:round;stroke-miterlimit:10;}
	.st17{fill:#FFFFFF;stroke:#FAA74B;stroke-width:2;stroke-linejoin:round;stroke-miterlimit:10;}
	.st18{fill:#FEDDB9;stroke:#FAA74B;stroke-linecap:round;stroke-linejoin:round;stroke-miterlimit:10;}
	.st19{clip-path:url(#SVGID_4_);}
</style>
<g>
	<path class="st3" d="M25.5,62.5v-4.7c0-0.8-0.7-1.5-1.5-1.5s-1.5,0.7-1.5,1.5v4.7"/>
	<circle class="st7" cx="72" cy="72" r="37.4"/>
	<rect x="26.5" y="88.3" class="st3" width="6.9" height="6.5"/>
	<rect x="20.7" y="77.7" class="st3" width="5.4" height="20.1"/>
	<rect x="17.2" y="70.6" class="st3" width="22.5" height="7.2"/>
	<line class="st11" x1="34.1" y1="74.1" x2="23.4" y2="74.1"/>
	<circle class="st3" cx="120.1" cy="67.9" r="3.5"/>
	
		<rect x="115.7" y="68" transform="matrix(-1 -4.505608e-11 4.505608e-11 -1 240.1636 137.9567)" class="st3" width="8.7" height="2"/>
	<line class="st3" x1="119.4" y1="55.6" x2="120.1" y2="64.4"/>
	<polygon class="st3" points="110.2,70.7 108.4,69.8 115.2,60 117,60.9 	"/>
	<polygon class="st3" points="112.4,71.2 110.7,70.3 118.1,60.8 119.7,61.8 	"/>
	<circle class="st3" cx="105.9" cy="67.7" r="1.7"/>
	<rect x="106" y="65.2" class="st3" width="3.7" height="5.4"/>
	<ellipse transform="matrix(0.3086 -0.9512 0.9512 0.3086 30.8044 150.8828)" class="st3" cx="119.2" cy="54.3" rx="1.1" ry="1.1"/>
	<line class="st3" x1="114.5" y1="50.8" x2="118.4" y2="53.3"/>
	
		<rect x="110.7" y="88.3" transform="matrix(-1 -4.470791e-11 4.470791e-11 -1 228.2644 183.168)" class="st3" width="6.9" height="6.5"/>
	
		<rect x="118" y="77.7" transform="matrix(-1 -4.466351e-11 4.466351e-11 -1 241.4311 175.3972)" class="st3" width="5.4" height="20.1"/>
	
		<rect x="104.4" y="70.6" transform="matrix(-1 -4.490998e-11 4.490998e-11 -1 231.3269 148.4027)" class="st3" width="22.5" height="7.2"/>
	<path class="st3" d="M96,63.1h3.7c1.4,0,2.6,1.2,2.6,2.6s-1.2,2.6-2.6,2.6h-3.3"/>
	<path class="st3" d="M97.8,66.9h3.7c1.4,0,2.6,1.2,2.6,2.6c0,1.4-1.2,2.6-2.6,2.6h-3.3"/>
	<path class="st3" d="M47.7,63.1H44c-1.4,0-2.6,1.2-2.6,2.6s1.2,2.6,2.6,2.6h3.3"/>
	<path class="st3" d="M45.8,66.9h-3.7c-1.4,0-2.6,1.2-2.6,2.6c0,1.4,1.2,2.6,2.6,2.6h3.3"/>
	<path class="st9" d="M71,71.6c0,0,2-6.2,0-12.8c0,0,14.9,4,27.8,0c0,0-2.2,7.3,0,12.8"/>
	<path class="st9" d="M44.8,71.9c0,0,2.6-7.7,0.6-14.3c0,0,14.9,4,27.7,0c0,0-1.7,8.9,0.5,14.4"/>
	<path class="st9" d="M60.7,76.1c0,0,1.5-7.7,0.4-14.3c0,0,8.3,4,15.6,0c0,0-1,8.9,0.3,14.4"/>
	<polyline class="st9" points="43.3,93.9 43.3,97.7 34.2,97.7 34.2,93.9 	"/>
	<polyline class="st9" points="109.9,93.9 109.9,97 100.8,97 100.8,93.9 	"/>
	<path class="st9" d="M105,86.1H39.1c-1.6,0-2.9-1.3-2.9-2.9V75c0-1.6,1.3-2.9,2.9-2.9H105c1.6,0,2.9,1.3,2.9,2.9v8.2
		C108,84.8,106.7,86.1,105,86.1z"/>
	<rect x="32.2" y="86.6" class="st9" width="79.7" height="7.4"/>
	<line class="st11" x1="110.1" y1="74.1" x2="120.7" y2="74.1"/>
	<path class="st3" d="M114.7,50.8c0.9,1.9,0.1,4.2-1.8,5.1l-3.3-6.9C111.5,48.1,113.8,48.9,114.7,50.8z"/>
	<rect x="52.8" y="32.1" class="st3" width="18.2" height="21.6"/>
	<g>
		<polyline class="st7" points="68.6,34.1 55.1,34.1 55.1,51.6 68.6,51.6 68.6,34.1 		"/>
	</g>
	<rect x="75.3" y="32.1" class="st3" width="18.2" height="21.6"/>
	<g>
		<polyline class="st7" points="91.1,34.1 77.6,34.1 77.6,51.6 91.1,51.6 91.1,34.1 		"/>
	</g>
	<rect x="28.5" y="68.1" class="st3" width="9.5" height="2.3"/>
	<rect x="29.4" y="65.8" class="st3" width="9.5" height="2.3"/>
	<rect x="28.4" y="63.4" class="st3" width="9.5" height="2.3"/>
	<polygon class="st3" points="25.9,70.5 18.7,70.5 17.7,61.4 26.9,61.4 	"/>
	<line class="st3" x1="18.8" y1="68" x2="25.9" y2="68"/>
	<path class="st3" d="M22.6,61.1v-4.7c0-0.8-0.7-1.5-1.5-1.5c-0.8,0-1.5,0.7-1.5,1.5V61"/>
	<line class="st11" x1="24.9" y1="57.9" x2="26.4" y2="56.5"/>
	<line class="st11" x1="24.7" y1="59.6" x2="26.9" y2="59.6"/>
	<line class="st11" x1="21.7" y1="58.8" x2="23.5" y2="58"/>
	<line class="st11" x1="20.7" y1="57.2" x2="18.6" y2="56.5"/>
	<line class="st11" x1="37.3" y1="89.4" x2="42.7" y2="89.4"/>
	<line class="st11" x1="75.5" y1="90" x2="83.1" y2="90"/>
	<line class="st11" x1="97.1" y1="91" x2="104.7" y2="91"/>
	<line class="st11" x1="86.2" y1="90" x2="87.5" y2="90"/>
	<line class="st11" x1="50.2" y1="90.9" x2="70.5" y2="90.9"/>
</g>
</svg>
