<?xml version="1.0" encoding="utf-8"?>
<!-- Generator: Adobe Illustrator 21.1.0, SVG Export Plug-In . SVG Version: 6.00 Build 0)  -->
<svg version="1.1" id="Layer_1" xmlns="http://www.w3.org/2000/svg" xmlns:xlink="http://www.w3.org/1999/xlink" x="0px" y="0px"
	 viewBox="0 0 144 144" style="enable-background:new 0 0 144 144;" xml:space="preserve">
<style type="text/css">
	.st0{fill:#2E3048;}
	.st1{fill:#FAA74A;}
	.st2{fill:#FFFFFF;}
	.st3{fill:#FFFFFF;stroke:#FAA74B;stroke-linecap:round;stroke-linejoin:round;stroke-miterlimit:10;}
	.st4{fill:none;stroke:#FFDDB9;stroke-width:2;stroke-linecap:round;stroke-miterlimit:10;}
	.st5{fill:none;stroke:#FFDDB9;stroke-linecap:round;stroke-miterlimit:10;}
	.st6{fill:none;stroke:#FAA74B;stroke-width:2;stroke-linecap:round;stroke-linejoin:round;stroke-miterlimit:10;}
	.st7{fill:#FFDDB9;}
	.st8{fill:#FAA74B;}
	.st9{fill:#FFFFFF;stroke:#FAA74B;stroke-width:2;stroke-linecap:round;stroke-linejoin:round;stroke-miterlimit:10;}
	.st10{opacity:0.35;fill:#FAA74B;}
	.st11{fill:none;stroke:#FFDDB9;stroke-linecap:round;stroke-linejoin:round;stroke-miterlimit:10;}
	.st12{clip-path:url(#SVGID_2_);}
	.st13{fill:#FFDDB9;stroke:#FFDDB9;stroke-linecap:round;stroke-linejoin:round;stroke-miterlimit:10;}
	.st14{fill:none;stroke:#FAA74B;stroke-linecap:round;stroke-linejoin:round;stroke-miterlimit:10;}
	.st15{fill:#FFFFFF;stroke:#FFDDB9;stroke-linecap:round;stroke-linejoin:round;stroke-miterlimit:10;}
	.st16{fill:none;stroke:#FAA74B;stroke-width:2;stroke-linejoin:round;stroke-miterlimit:10;}
	.st17{fill:#FFFFFF;stroke:#FAA74B;stroke-width:2;stroke-linejoin:round;stroke-miterlimit:10;}
	.st18{fill:#FEDDB9;stroke:#FAA74B;stroke-linecap:round;stroke-linejoin:round;stroke-miterlimit:10;}
	.st19{clip-path:url(#SVGID_4_);}
</style>
<g>
	
		<rect x="116.4" y="55.6" transform="matrix(0.9976 6.935441e-02 -6.935441e-02 0.9976 5.3758 -7.959)" class="st15" width="1.9" height="35.6"/>
	<circle class="st7" cx="72.1" cy="72.2" r="37.4"/>
	<polyline class="st3" points="110.1,74 112.5,74 112.5,78.8 109.9,78.8 	"/>
	<g>
		<line class="st15" x1="111.4" y1="75.6" x2="110.2" y2="75.6"/>
	</g>
	<polyline class="st3" points="25.6,74.2 22,74.2 22,77.9 23.8,77.9 	"/>
	<line class="st15" x1="24.6" y1="75.6" x2="23.5" y2="75.6"/>
	<path class="st9" d="M108.9,71.2c0,0-0.2-3-3.6-3.5s-15-2.1-15-2.1l-10-11.4c0,0-1.4-1.8-5-1.8s-19.9,0-19.9,0s-14.7-1.1-25.2,15.4
		c-0.8,2.9-0.9,3.2-0.9,3.2"/>
	<polyline class="st15" points="91.6,65.8 91.6,68.5 94,70.9 	"/>
	<polyline class="st18" points="89.7,65 86.7,65 79.9,56.5 82.6,56.5 	"/>
	<path class="st18" d="M55.6,58.3v6.3c0,0.9-0.8,1.7-1.7,1.7H41.7c-1.2,0-2-1.2-1.6-2.3c1.1-3,3.9-7.5,10.7-7.5c0.6,0,1.9,0,3,0
		C54.8,56.6,55.6,57.3,55.6,58.3z"/>
	<path class="st9" d="M29.3,85.5c0-5.3,4.3-9.5,9.6-9.5s9.6,4.3,9.6,9.6c0,0-0.3,1.4,2,1.4s35.4,0,35.4,0s1.9,0.2,1.9-1.4
		c0-5.4,4.4-9.7,9.8-9.6c5.3,0.1,9.5,4.5,9.5,9.8v0.3c0,0,2.9-0.1,2.9-2.8c0-2.7,0-10.1,0-10.1v-0.1c0-1.3-1-2.3-2.3-2.3H29.9
		c0,0-2.7,0.2-3.8,2.5s-4,8.9-4,8.9s-1.7,3.5,1.2,3.5h5.1C28.4,85.8,29.3,85.9,29.3,85.5z"/>
	
		<rect x="19.9" y="79.7" transform="matrix(-1 -4.487667e-11 4.487667e-11 -1 45.9056 162.3411)" class="st3" width="6.2" height="2.9"/>
	
		<rect x="108.3" y="80.6" transform="matrix(-1 -4.477808e-11 4.477808e-11 -1 220.2364 164.1091)" class="st3" width="3.7" height="2.9"/>
	<path class="st14" d="M84.1,66v16.8c0,0.9-0.8,1.7-1.7,1.7H59.5c-0.9,0-1.7-0.8-1.7-1.7V56.3c0-0.9,0.8-1.7,1.7-1.7h13.9
		c0,0,2-0.3,3.3,1.3S84.1,66,84.1,66z"/>
	
		<rect x="56.9" y="64.9" transform="matrix(-1 -4.380997e-11 4.380997e-11 -1 115.5522 132.6016)" class="st15" width="1.7" height="2.9"/>
	
		<rect x="64.6" y="67.7" transform="matrix(9.638163e-11 -1 1 9.638163e-11 -5.4055 136.1805)" class="st15" width="1.7" height="6.2"/>
	<path class="st18" d="M79.8,66.3H60.7v-9.4h11.8c0,0,1.6,0.1,2.8,1.9S79.8,66.3,79.8,66.3z"/>
	<path class="st6" d="M80.4,54.2c0,0-1.4-1.8-5-1.8c-3.5,0-19.9,0-19.9,0"/>
	<path class="st6" d="M105.4,67.7c-3.5-0.5-15-2.1-15-2.1l-10-11.4"/>
	<line class="st15" x1="102" y1="77.5" x2="109.9" y2="77.5"/>
	<line class="st15" x1="44.1" y1="77.5" x2="92.5" y2="77.5"/>
	<line class="st15" x1="24.3" y1="77.5" x2="33.6" y2="77.5"/>
	
		<rect x="56.9" y="75.9" transform="matrix(-1 -4.600066e-11 4.600066e-11 -1 115.5522 154.6158)" class="st15" width="1.7" height="2.9"/>
	<polyline class="st8" points="40.2,64.2 55.5,64.2 55.5,64.8 55,66 53.4,66.4 43.1,66.3 41.7,66.3 40.7,65.9 40.2,65.2 	"/>
	<polyline class="st8" points="60.8,64.2 76.2,64.2 78.6,64.3 79.7,66.4 74.1,66.4 63.7,66.3 62.4,66.3 60.8,66.3 60.8,65.2 	"/>
	<path class="st8" d="M64.7,65.7h-2.8l-1-5H62c0.5,0,1,0.4,1.3,1.1L64.7,65.7z"/>
	<path class="st8" d="M74.4,65.9L74.4,65.9c-0.3,0-0.5-0.3-0.5-0.6l0.3-3.5c0-0.3,0.3-0.5,0.6-0.5l0,0c0.3,0,0.5,0.3,0.5,0.6
		L75,65.4C75,65.7,74.7,65.9,74.4,65.9z"/>
	<path class="st8" d="M85.5,63.7c0,0,3.2,0.1,3.9,1.1c-0.5,0.4-0.5,0.4-0.5,0.4H87"/>
	<circle class="st17" cx="38.9" cy="83.8" r="7.4"/>
	<circle class="st7" cx="38.9" cy="83.8" r="4.6"/>
	<circle class="st17" cx="38.9" cy="83.8" r="2.6"/>
	<circle class="st17" cx="97.5" cy="83.8" r="7.4"/>
	<circle class="st7" cx="97.5" cy="83.8" r="4.6"/>
	<circle class="st17" cx="97.5" cy="83.8" r="2.6"/>
	<line class="st6" x1="14.6" y1="91.4" x2="129.4" y2="91.4"/>
	<polygon class="st3" points="115.5,91.6 108.2,91.6 111.4,86.9 115.5,86.9 	"/>
	<polygon class="st3" points="122.6,63.4 113.3,63.4 114.3,53.1 123.6,53.1 	"/>
	<polygon class="st8" points="121.2,61.7 115,61.7 115.7,54.8 121.9,54.8 	"/>
	<g>
		<path class="st2" d="M118.7,56c0.3,0,0.5,0,0.7,0.1c0.2,0.1,0.4,0.2,0.5,0.3c0.1,0.1,0.2,0.3,0.2,0.4c0,0.2,0,0.4,0,0.6
			c0,0.2-0.1,0.4-0.2,0.6c-0.1,0.2-0.2,0.3-0.4,0.4c-0.2,0.1-0.3,0.2-0.6,0.3c-0.2,0.1-0.5,0.1-0.7,0.1h-0.7l-0.3,1.6h-0.6l0.7-4.4
			H118.7z M118.4,58.3c0.2,0,0.3,0,0.5-0.1c0.1,0,0.3-0.1,0.4-0.2c0.1-0.1,0.2-0.2,0.2-0.3c0.1-0.1,0.1-0.2,0.1-0.4
			c0-0.3,0-0.5-0.2-0.7c-0.1-0.2-0.4-0.2-0.7-0.2H118l-0.3,1.8H118.4z"/>
	</g>
</g>
</svg>
