<?xml version="1.0" encoding="utf-8"?>
<!-- Generator: Adobe Illustrator 21.1.0, SVG Export Plug-In . SVG Version: 6.00 Build 0)  -->
<svg version="1.1" id="Layer_1" xmlns="http://www.w3.org/2000/svg" xmlns:xlink="http://www.w3.org/1999/xlink" x="0px" y="0px"
	 viewBox="0 0 144 144" style="enable-background:new 0 0 144 144;" xml:space="preserve">
<style type="text/css">
	.st0{fill:#2E3048;}
	.st1{fill:#FAA74A;}
	.st2{fill:#FFFFFF;}
	.st3{fill:#FFFFFF;stroke:#FAA74B;stroke-linecap:round;stroke-linejoin:round;stroke-miterlimit:10;}
	.st4{fill:none;stroke:#FFDDB9;stroke-width:2;stroke-linecap:round;stroke-miterlimit:10;}
	.st5{fill:none;stroke:#FFDDB9;stroke-linecap:round;stroke-miterlimit:10;}
	.st6{fill:none;stroke:#FAA74B;stroke-width:2;stroke-linecap:round;stroke-linejoin:round;stroke-miterlimit:10;}
	.st7{fill:#FFDDB9;}
	.st8{fill:#FAA74B;}
	.st9{fill:#FFFFFF;stroke:#FAA74B;stroke-width:2;stroke-linecap:round;stroke-linejoin:round;stroke-miterlimit:10;}
	.st10{opacity:0.35;fill:#FAA74B;}
	.st11{fill:none;stroke:#FFDDB9;stroke-linecap:round;stroke-linejoin:round;stroke-miterlimit:10;}
	.st12{clip-path:url(#SVGID_2_);}
	.st13{fill:#FFDDB9;stroke:#FFDDB9;stroke-linecap:round;stroke-linejoin:round;stroke-miterlimit:10;}
	.st14{fill:none;stroke:#FAA74B;stroke-linecap:round;stroke-linejoin:round;stroke-miterlimit:10;}
	.st15{fill:#FFFFFF;stroke:#FFDDB9;stroke-linecap:round;stroke-linejoin:round;stroke-miterlimit:10;}
	.st16{fill:none;stroke:#FAA74B;stroke-width:2;stroke-linejoin:round;stroke-miterlimit:10;}
	.st17{fill:#FFFFFF;stroke:#FAA74B;stroke-width:2;stroke-linejoin:round;stroke-miterlimit:10;}
	.st18{fill:#FEDDB9;stroke:#FAA74B;stroke-linecap:round;stroke-linejoin:round;stroke-miterlimit:10;}
	.st19{clip-path:url(#SVGID_4_);}
</style>
<g>
	<circle class="st7" cx="72" cy="72" r="37.4"/>
	<polyline class="st9" points="33.9,47.7 70.6,47.7 70.6,53.7 76.6,53.7 76.6,59.7 82.6,59.7 82.6,65.7 88.6,65.7 88.6,71.7 
		94.6,71.7 94.6,77.7 100.6,77.7 100.6,83.7 106.6,83.7 106.6,89.7 37,89.7 	"/>
	<rect x="26.7" y="65.5" class="st9" width="30.5" height="39.5"/>
	<line class="st9" x1="27.2" y1="97.6" x2="57" y2="97.6"/>
	<line class="st9" x1="27.2" y1="71.9" x2="57" y2="71.9"/>
	<circle class="st9" cx="41.8" cy="84.8" r="9.7"/>
	<line class="st11" x1="30.3" y1="68.6" x2="39" y2="68.6"/>
	<circle class="st11" cx="43.2" cy="68.6" r="1.2"/>
	<circle class="st11" cx="47.6" cy="68.6" r="1.2"/>
	<circle class="st11" cx="52" cy="68.6" r="1.2"/>
	<rect x="60.3" y="65.5" class="st9" width="30.5" height="39.5"/>
	<line class="st9" x1="90.6" y1="97.6" x2="60.8" y2="97.6"/>
	<line class="st9" x1="60.8" y1="71.9" x2="90.6" y2="71.9"/>
	<circle class="st9" cx="75.4" cy="84.8" r="9.7"/>
	<line class="st11" x1="64" y1="68.6" x2="72.6" y2="68.6"/>
	<circle class="st11" cx="76.8" cy="68.6" r="1.2"/>
	<circle class="st11" cx="81.2" cy="68.6" r="1.2"/>
	<circle class="st11" cx="85.6" cy="68.6" r="1.2"/>
	<g>
		<g>
			<path class="st3" d="M91.7,90.8c0,0,0.5-2.1,1.4-2.2c0.9-0.1,5-1.2,5.8-1.2s0.9,0,1.2,0.2s0.4,0.8,0.8,1.1
				c0.3,0.3,0.2,0.7,1.2,0.7s1.2,1,1.2,1"/>
			<path class="st3" d="M109.2,87.7c0,0,4-0.8,4.8-0.5c0.8,0.2,2.3,1.2,2.3,1.2v1.8l1.1,0.8l-1.5,2.7h-7.4"/>
			<path class="st3" d="M112.2,91.2c0,0-0.5-2.6-1-2.7c-0.5-0.1-1.2-0.7-1.9-0.9c-0.7-0.2-3.8-0.3-4.3-0.4s-4.6,0.8-4.6,0.8
				l-1.5,2.5"/>
		</g>
		<g>
			<polygon class="st2" points="118.9,109.7 91.3,109.7 89.3,91.2 120.9,91.2 			"/>
			<g>
				<defs>
					<polygon id="SVGID_1_" points="119,109.6 91.4,109.6 89.4,91.2 121,91.2 					"/>
				</defs>
				<clipPath id="SVGID_2_">
					<use xlink:href="#SVGID_1_"  style="overflow:visible;"/>
				</clipPath>
				<g class="st12">
					<line class="st11" x1="129.7" y1="97.6" x2="103.6" y2="123.5"/>
					<line class="st11" x1="128.2" y1="96" x2="102" y2="121.9"/>
					<line class="st11" x1="126.6" y1="94.4" x2="100.5" y2="120.3"/>
					<line class="st11" x1="125" y1="92.8" x2="98.9" y2="118.7"/>
					<line class="st11" x1="123.4" y1="91.2" x2="97.3" y2="117.1"/>
					<line class="st11" x1="121.8" y1="89.7" x2="95.7" y2="115.5"/>
					<line class="st11" x1="120.2" y1="88.1" x2="94.1" y2="114"/>
					<line class="st11" x1="118.7" y1="86.5" x2="92.5" y2="112.4"/>
					<line class="st11" x1="117.1" y1="84.9" x2="91" y2="110.8"/>
					<line class="st11" x1="115.5" y1="83.3" x2="89.4" y2="109.2"/>
					<line class="st11" x1="113.9" y1="81.8" x2="87.8" y2="107.6"/>
					<line class="st11" x1="112.3" y1="80.2" x2="86.2" y2="106"/>
					<line class="st11" x1="110.7" y1="78.6" x2="84.6" y2="104.5"/>
					<line class="st11" x1="109.2" y1="77" x2="83" y2="102.9"/>
					<line class="st11" x1="107.6" y1="75.4" x2="81.5" y2="101.3"/>
				</g>
				<g class="st12">
					<line class="st11" x1="107.5" y1="123.6" x2="81.6" y2="97.5"/>
					<line class="st11" x1="109" y1="122" x2="83.2" y2="95.9"/>
					<line class="st11" x1="110.6" y1="120.4" x2="84.7" y2="94.3"/>
					<line class="st11" x1="112.2" y1="118.8" x2="86.3" y2="92.7"/>
					<line class="st11" x1="113.8" y1="117.2" x2="87.9" y2="91.1"/>
					<line class="st11" x1="115.4" y1="115.7" x2="89.5" y2="89.5"/>
					<line class="st11" x1="117" y1="114.1" x2="91.1" y2="88"/>
					<line class="st11" x1="118.5" y1="112.5" x2="92.7" y2="86.4"/>
					<line class="st11" x1="120.1" y1="110.9" x2="94.2" y2="84.8"/>
					<line class="st11" x1="121.7" y1="109.3" x2="95.8" y2="83.2"/>
					<line class="st11" x1="123.3" y1="107.8" x2="97.4" y2="81.6"/>
					<line class="st11" x1="124.9" y1="106.2" x2="99" y2="80"/>
					<line class="st11" x1="126.5" y1="104.6" x2="100.6" y2="78.5"/>
					<line class="st11" x1="128" y1="103" x2="102.2" y2="76.9"/>
					<line class="st11" x1="129.6" y1="101.4" x2="103.7" y2="75.3"/>
				</g>
			</g>
			<polygon class="st6" points="118.9,109.7 91.3,109.7 89.3,91.2 120.9,91.2 			"/>
		</g>
	</g>
	<polyline class="st6" points="120.3,77.8 71.6,28.8 41.7,28.8 	"/>
	<line class="st3" x1="69.1" y1="47.5" x2="69.1" y2="29.5"/>
	<line class="st3" x1="76" y1="53.6" x2="76" y2="34.2"/>
	<line class="st3" x1="82.1" y1="59.5" x2="82.1" y2="40.1"/>
	<line class="st3" x1="88.2" y1="65.4" x2="88.2" y2="46"/>
	<line class="st3" x1="94.2" y1="71.3" x2="94.2" y2="51.9"/>
	<line class="st3" x1="100.3" y1="77.2" x2="100.3" y2="57.8"/>
	<line class="st3" x1="106.4" y1="83.2" x2="106.4" y2="63.8"/>
	<line class="st3" x1="112.5" y1="89.1" x2="112.5" y2="69.7"/>
	<line class="st3" x1="118.6" y1="90.8" x2="118.6" y2="75.6"/>
	<path class="st13" d="M32.2,82.8c0,0,4.5-1.8,6.4,0.7c1.9,2.4,6,2.9,7.9,2.6c3.7-0.5,4.3-1.4,4.7-2.2c0,0-0.6,5.8-1.4,6.3
		s-3.7,3.6-4.6,3.6c-0.9,0-4.7,0.7-6.1-0.1c-1.4-0.8-3-1.1-4.8-2.9C32.7,89,32.2,82.8,32.2,82.8z"/>
	<circle class="st6" cx="41.8" cy="84.8" r="9.7"/>
	<line class="st3" x1="48.2" y1="77.9" x2="48.2" y2="91.4"/>
	<g>
		<path class="st7" d="M75.3,74.8c-5.4,0-9.9,4.4-9.9,9.9s4.4,9.9,9.9,9.9c5.4,0,9.9-4.4,9.9-9.9S80.7,74.8,75.3,74.8z M72.3,91.2
			c-0.1,0-1.4-0.5-1.8-1.3c-0.1-0.3-0.1-0.6-0.1-1c0-0.4,0-1.1-0.3-1.1c-1.1-0.2-1.2-1-1.3-1.9c0-0.2,0-0.5-0.1-0.7c0,0,0-0.1,0-0.1
			c0.1-0.7,0.3-2.9,0.6-3.5c0.1-0.1,0.1-0.2,0-0.4c0-0.2-0.1-0.5,0-0.9c0.2-0.5,0.9-1,2.2-1.9c0.1-0.1,0.2-0.2,0.3-0.2
			c0.3-0.2,1.1-0.9,2.5-1.2c0.9-0.2,1.5,0.1,2.1,0.5c0.6,0.3,1.1,0.6,2,0.6c1,0,1.3,0,1.4,0.4c0,0.1,0,0.3-0.1,0.4
			c0.6,0.4,2,1.6,2,2.6c0,0.3,0.2,0.6,0.5,0.9c0.3,0.4,0.6,0.8,0.6,1.2c0.1,0.9,0.2,2.3,0,3.6c-0.1,1-0.6,1.3-1.1,1.6
			c-0.3,0.2-0.6,0.4-0.9,0.8c-0.6,0.8-1,1-1.4,1.1c-0.1,0-0.2,0-0.2,0.1c-0.3,0.4-1.3,0.7-3.6,1.2l-0.2,0.1c-0.1,0-0.1,0-0.2,0
			c-0.5,0-1.3-0.3-2.5-0.8C72.6,91.3,72.4,91.3,72.3,91.2z"/>
	</g>
	<line class="st3" x1="81.8" y1="77.9" x2="81.8" y2="91.4"/>
	<circle class="st6" cx="75.4" cy="84.8" r="9.7"/>
</g>
</svg>
