<?xml version="1.0" encoding="utf-8"?>
<!-- Generator: Adobe Illustrator 21.1.0, SVG Export Plug-In . SVG Version: 6.00 Build 0)  -->
<svg version="1.1" id="Layer_1" xmlns="http://www.w3.org/2000/svg" xmlns:xlink="http://www.w3.org/1999/xlink" x="0px" y="0px"
	 viewBox="0 0 50.8 49" style="enable-background:new 0 0 50.8 49;" xml:space="preserve">
<style type="text/css">
	.st0{fill:#2E3048;}
	.st1{fill:#FAA74A;}
	.st2{fill:#FFFFFF;stroke:#FAA74B;stroke-linecap:round;stroke-linejoin:round;stroke-miterlimit:10;}
	.st3{fill:#FFFFFF;stroke:#FAA74B;stroke-width:2;stroke-linecap:round;stroke-linejoin:round;stroke-miterlimit:10;}
	.st4{fill:#FFFFFF;}
	.st5{fill:none;stroke:#FFDDB9;stroke-width:2;stroke-linecap:round;stroke-miterlimit:10;}
	.st6{fill:none;stroke:#FFDDB9;stroke-linecap:round;stroke-miterlimit:10;}
	.st7{fill:none;stroke:#FAA74B;stroke-width:2;stroke-linecap:round;stroke-linejoin:round;stroke-miterlimit:10;}
	.st8{fill:#FFDDB9;}
	.st9{fill:#FAA74B;}
	.st10{opacity:0.35;fill:#FAA74B;}
</style>
<g>
	<g>
		<rect x="45.1" y="19.2" class="st4" width="5.8" height="11.5"/>
		<line class="st2" x1="24.5" y1="24.6" x2="31.5" y2="33.8"/>
		
			<rect x="20.9" y="10.8" transform="matrix(0.9378 -0.3471 0.3471 0.9378 -4.8415 8.8099)" class="st2" width="2.6" height="14.2"/>
		<line class="st5" x1="24.6" y1="5.7" x2="24.6" y2="8.8"/>
		<line class="st6" x1="11.3" y1="11.1" x2="12.3" y2="12.2"/>
		<line class="st6" x1="6.4" y1="19.6" x2="7.8" y2="20"/>
		<line class="st6" x1="6.3" y1="29.3" x2="7.8" y2="28.9"/>
		<line class="st6" x1="11.2" y1="37.8" x2="12.2" y2="36.8"/>
		<line class="st6" x1="19.6" y1="42.7" x2="20" y2="41.3"/>
		<line class="st6" x1="29.4" y1="42.8" x2="29" y2="41.3"/>
		<line class="st6" x1="37.9" y1="37.9" x2="36.8" y2="36.9"/>
		<line class="st6" x1="42.8" y1="29.5" x2="41.3" y2="29.1"/>
		<line class="st6" x1="42.8" y1="19.7" x2="41.4" y2="20.1"/>
		<line class="st6" x1="38" y1="11.2" x2="36.9" y2="12.3"/>
		<line class="st6" x1="29.5" y1="6.3" x2="29.1" y2="7.8"/>
		<line class="st6" x1="19.8" y1="6.3" x2="20.1" y2="7.7"/>
		<line class="st5" x1="15.2" y1="8.2" x2="16.7" y2="10.9"/>
		<line class="st5" x1="8.3" y1="15.1" x2="11" y2="16.6"/>
		<line class="st5" x1="5.8" y1="24.5" x2="8.9" y2="24.5"/>
		<line class="st5" x1="8.3" y1="33.8" x2="11" y2="32.3"/>
		<line class="st5" x1="15.2" y1="40.7" x2="16.7" y2="38"/>
		<line class="st5" x1="24.6" y1="43.2" x2="24.6" y2="40.1"/>
		<line class="st5" x1="34" y1="40.7" x2="32.4" y2="38"/>
		<line class="st5" x1="40.8" y1="33.9" x2="38.1" y2="32.3"/>
		<line class="st5" x1="43.4" y1="24.5" x2="40.2" y2="24.5"/>
		<line class="st5" x1="40.8" y1="15.1" x2="38.1" y2="16.6"/>
		<line class="st5" x1="34" y1="8.2" x2="32.4" y2="10.9"/>
		<circle class="st7" cx="24.6" cy="24.6" r="19.5"/>
		
			<rect x="33.4" y="17.6" transform="matrix(-0.3353 0.9421 -0.9421 -0.3353 72.3267 5.35)" class="st2" width="1.7" height="21.1"/>
		<g>
			<path class="st8" d="M24.6,21.3c-1.8,0-3.2,1.5-3.2,3.2c0,1.8,1.5,3.2,3.2,3.2c1.8,0,3.2-1.5,3.2-3.2
				C27.8,22.8,26.4,21.3,24.6,21.3"/>
		</g>
		<circle class="st9" cx="11.3" cy="37.8" r="11.3"/>
		<g>
			<path class="st4" d="M6.5,39.8c0.1,0,0.1,0,0.2,0.1c0,0,0.1,0.1,0.1,0.2v0.4H3v-0.2c0,0,0-0.1,0-0.2C3,40,3.1,40,3.1,40l1.8-1.8
				c0.1-0.2,0.3-0.3,0.4-0.4c0.1-0.1,0.2-0.3,0.3-0.4c0.1-0.1,0.2-0.3,0.2-0.4c0-0.1,0.1-0.3,0.1-0.5c0-0.2,0-0.3-0.1-0.4
				c-0.1-0.1-0.1-0.2-0.2-0.3c-0.1-0.1-0.2-0.1-0.3-0.2c-0.1,0-0.3-0.1-0.4-0.1c-0.1,0-0.3,0-0.4,0.1c-0.1,0-0.2,0.1-0.3,0.2
				c-0.1,0.1-0.2,0.2-0.2,0.3c-0.1,0.1-0.1,0.2-0.1,0.3c0,0.1-0.1,0.2-0.1,0.2c-0.1,0-0.1,0-0.2,0l-0.4-0.1c0-0.3,0.1-0.5,0.2-0.7
				c0.1-0.2,0.2-0.4,0.4-0.5c0.2-0.1,0.3-0.2,0.6-0.3c0.2-0.1,0.4-0.1,0.7-0.1c0.2,0,0.5,0,0.7,0.1C5.8,35,6,35.1,6.1,35.2
				c0.2,0.1,0.3,0.3,0.4,0.5c0.1,0.2,0.1,0.4,0.1,0.7c0,0.2,0,0.4-0.1,0.6c-0.1,0.2-0.1,0.4-0.3,0.5S6,37.8,5.9,37.9
				c-0.1,0.2-0.3,0.3-0.4,0.5L4,39.9c0.1,0,0.2-0.1,0.3-0.1c0.1,0,0.2,0,0.3,0H6.5z"/>
			<path class="st4" d="M11.5,38.5v0.4c0,0,0,0.1,0,0.1c0,0-0.1,0-0.1,0h-0.7v1.5H10V39H7.5c-0.1,0-0.1,0-0.1,0c0,0-0.1-0.1-0.1-0.1
				l-0.1-0.4l2.7-3.6h0.7v3.6H11.5z M10,38.5v-2.3c0-0.1,0-0.1,0-0.2c0-0.1,0-0.2,0-0.2L8,38.5H10z"/>
			<path class="st4" d="M12.7,40.6c0,0.1-0.1,0.2-0.2,0.2c-0.1,0-0.1,0.1-0.2,0.1H12l2.4-5.9c0-0.1,0.1-0.1,0.1-0.2
				c0.1,0,0.1-0.1,0.2-0.1H15L12.7,40.6z"/>
			<path class="st4" d="M19.5,34.9v0.3c0,0.1,0,0.2,0,0.2c0,0.1,0,0.1-0.1,0.1l-2.3,4.7c0,0.1-0.1,0.1-0.1,0.2
				c-0.1,0-0.1,0.1-0.2,0.1h-0.5l2.4-4.7c0-0.1,0.1-0.1,0.1-0.2s0.1-0.1,0.1-0.2h-2.9c0,0-0.1,0-0.1-0.1c0,0-0.1-0.1-0.1-0.1v-0.5
				H19.5z"/>
		</g>
	</g>
	<rect x="22.6" y="0.2" class="st4" width="4.8" height="3.8"/>
</g>
</svg>
