<?xml version="1.0" encoding="utf-8"?>
<!-- Generator: Adobe Illustrator 21.1.0, SVG Export Plug-In . SVG Version: 6.00 Build 0)  -->
<svg version="1.1" id="Layer_1" xmlns="http://www.w3.org/2000/svg" xmlns:xlink="http://www.w3.org/1999/xlink" x="0px" y="0px"
	 viewBox="0 0 144 144" style="enable-background:new 0 0 144 144;" xml:space="preserve">
<style type="text/css">
	.st0{fill:#2E3048;}
	.st1{fill:#FAA74A;}
	.st2{fill:#FFFFFF;}
	.st3{fill:#FFFFFF;stroke:#FAA74B;stroke-linecap:round;stroke-linejoin:round;stroke-miterlimit:10;}
	.st4{fill:none;stroke:#FFDDB9;stroke-width:2;stroke-linecap:round;stroke-miterlimit:10;}
	.st5{fill:none;stroke:#FFDDB9;stroke-linecap:round;stroke-miterlimit:10;}
	.st6{fill:none;stroke:#FAA74B;stroke-width:2;stroke-linecap:round;stroke-linejoin:round;stroke-miterlimit:10;}
	.st7{fill:#FFDDB9;}
	.st8{fill:#FAA74B;}
	.st9{fill:#FFFFFF;stroke:#FAA74B;stroke-width:2;stroke-linecap:round;stroke-linejoin:round;stroke-miterlimit:10;}
	.st10{opacity:0.35;fill:#FAA74B;}
	.st11{fill:none;stroke:#FFDDB9;stroke-linecap:round;stroke-linejoin:round;stroke-miterlimit:10;}
	.st12{clip-path:url(#SVGID_2_);}
	.st13{fill:#FFDDB9;stroke:#FFDDB9;stroke-linecap:round;stroke-linejoin:round;stroke-miterlimit:10;}
	.st14{fill:none;stroke:#FAA74B;stroke-linecap:round;stroke-linejoin:round;stroke-miterlimit:10;}
	.st15{fill:#FFFFFF;stroke:#FFDDB9;stroke-linecap:round;stroke-linejoin:round;stroke-miterlimit:10;}
	.st16{fill:none;stroke:#FAA74B;stroke-width:2;stroke-linejoin:round;stroke-miterlimit:10;}
	.st17{fill:#FFFFFF;stroke:#FAA74B;stroke-width:2;stroke-linejoin:round;stroke-miterlimit:10;}
	.st18{fill:#FEDDB9;stroke:#FAA74B;stroke-linecap:round;stroke-linejoin:round;stroke-miterlimit:10;}
	.st19{clip-path:url(#SVGID_4_);}
</style>
<g>
	<circle class="st7" cx="72.1" cy="72.2" r="37.4"/>
	<polyline class="st2" points="47.5,51.1 58.7,44.1 65.7,49.7 69.3,43.4 93.4,43.6 89.6,49.9 99.8,47.9 88.8,57.3 82.3,56.3 
		59.2,55.8 55.8,55.1 	"/>
	<polygon class="st9" points="73.3,93.8 64.3,100 64.3,78.4 73.3,71.9 	"/>
	<rect x="39.7" y="78.4" class="st9" width="24.6" height="21.6"/>
	<path class="st7" d="M57.9,86.5c-1.3,0-1.1,1.2-0.8,1.4c0-0.8,0.4-1,0.8-1c1.1,0,1,1.4,1,1.4c0,0.4-0.1,0.7-0.3,0.9
		c-0.4,0.4-1.1,0.4-1.1,0.4l0,0l0,0c0,0-0.2,0-0.4-0.1c-0.2-0.1-0.6-0.3-1.1-0.8c-1-1-1.6-1.3-2.4-1.3c-0.6,0-1.1,0.4-1.3,0.5
		c-0.2-0.2-0.7-0.5-1.3-0.5c-0.9,0-1.4,0.3-2.4,1.3c-0.5,0.5-0.9,0.7-1.1,0.8c-0.2,0.1-0.4,0.1-0.4,0.1l0,0l0,0c0,0-0.7,0-1.1-0.4
		c-0.2-0.2-0.3-0.5-0.3-0.9c0,0-0.1-1.4,1-1.4c0.4,0,0.8,0.1,0.8,1c0.2-0.2,0.5-1.4-0.8-1.4s-2,1.3-2,2c0,0.8,0.4,1.6,1,2.2
		c0.5,0.5,1.5,1.1,3.1,1.1c1.5,0,2.4-0.6,2.9-1.2c0.3-0.3,0.5-0.6,0.6-0.8c0.1,0.2,0.3,0.5,0.6,0.8c0.5,0.5,1.4,1.2,2.9,1.2
		c1.6,0,2.6-0.6,3.1-1.1c0.7-0.6,1-1.4,1-2.2C59.8,87.8,59.2,86.5,57.9,86.5z"/>
	<rect x="69.9" y="78.4" class="st9" width="24.6" height="21.6"/>
	<polyline class="st2" points="40.5,78.4 49.1,72 58.8,72 59.5,75.8 66.9,75.9 64.3,78.4 42,78.3 	"/>
	<path class="st7" d="M77.1,62.4c-1.3,0-1.1,1.2-0.8,1.4c0-0.8,0.4-1,0.8-1c1.1,0,1,1.4,1,1.4c0,0.4-0.1,0.7-0.3,0.9
		c-0.4,0.4-1.1,0.4-1.1,0.4l0,0l0,0c0,0-0.2,0-0.4-0.1c-0.2-0.1-0.6-0.3-1.1-0.8c-1-1-1.6-1.3-2.4-1.3c-0.6,0-1.1,0.4-1.3,0.5
		c-0.2-0.2-0.7-0.5-1.3-0.5c-0.9,0-1.4,0.3-2.4,1.3c-0.5,0.5-0.9,0.7-1.1,0.8c-0.2,0.1-0.4,0.1-0.4,0.1l0,0l0,0c0,0-0.7,0-1.1-0.4
		c-0.2-0.2-0.3-0.5-0.3-0.9c0,0-0.1-1.4,1-1.4c0.4,0,0.8,0.1,0.8,1c0.2-0.2,0.5-1.4-0.8-1.4s-2,1.3-2,2c0,0.8,0.4,1.6,1,2.2
		c0.5,0.5,1.5,1.1,3.1,1.1c1.5,0,2.4-0.6,2.9-1.2c0.3-0.3,0.5-0.6,0.6-0.8c0.1,0.2,0.3,0.5,0.6,0.8c0.5,0.5,1.4,1.2,2.9,1.2
		c1.6,0,2.6-0.6,3.1-1.1c0.7-0.6,1-1.4,1-2.2C79.1,63.7,78.4,62.4,77.1,62.4z"/>
	<polyline class="st9" points="39.9,78.6 64.6,78.6 67.9,76.2 	"/>
	<path class="st11" d="M61.8,71.9l-6.4,6.4v3.6c0,0-5-0.1-5,0v-3.6l6.4-6.4"/>
	<polyline class="st6" points="39.7,78.4 48.8,71.9 73.3,71.9 	"/>
	<polyline class="st2" points="71.4,78.4 80,72 89.8,72 97.2,72 102.3,72.3 95.3,78.4 72.3,78.3 	"/>
	<polygon class="st9" points="103.5,93.8 94.5,100 94.5,78.4 103.5,71.9 	"/>
	<path class="st7" d="M88.1,86.5c-1.3,0-1.1,1.2-0.8,1.4c0-0.8,0.4-1,0.8-1c1.1,0,1,1.4,1,1.4c0,0.4-0.1,0.7-0.3,0.9
		c-0.4,0.4-1.1,0.4-1.1,0.4l0,0l0,0c0,0-0.2,0-0.4-0.1c-0.2-0.1-0.6-0.3-1.1-0.8c-1-1-1.6-1.3-2.4-1.3c-0.6,0-1.1,0.4-1.3,0.5
		c-0.2-0.2-0.7-0.5-1.3-0.5c-0.9,0-1.4,0.3-2.4,1.3c-0.5,0.5-0.9,0.7-1.1,0.8c-0.2,0.1-0.4,0.1-0.4,0.1l0,0l0,0c0,0-0.7,0-1.1-0.4
		c-0.2-0.2-0.3-0.5-0.3-0.9c0,0-0.1-1.4,1-1.4c0.4,0,0.8,0.1,0.8,1c0.2-0.2,0.5-1.4-0.8-1.4c-1.3,0-2,1.3-2,2c0,0.8,0.4,1.6,1,2.2
		c0.5,0.5,1.5,1.1,3.1,1.1c1.5,0,2.4-0.6,2.9-1.2c0.3-0.3,0.5-0.6,0.6-0.8c0.1,0.2,0.3,0.5,0.6,0.8c0.5,0.5,1.4,1.2,2.9,1.2
		c1.6,0,2.6-0.6,3.1-1.1c0.7-0.6,1-1.4,1-2.2C90.1,87.8,89.4,86.5,88.1,86.5z"/>
	<path class="st11" d="M92,71.9l-7.1,6.4l0.3,3.9c0,0-5-0.1-5,0l-0.3-3.9l7.1-6.4"/>
	<polyline class="st6" points="69.9,78.4 79,71.9 103.5,71.9 	"/>
	<polyline class="st9" points="90.7,55.5 90.7,71.8 81.6,78 81.6,56.4 90.7,49.8 	"/>
	<rect x="57.1" y="56.4" class="st9" width="24.6" height="21.6"/>
	<polyline class="st9" points="81.6,56.4 77.4,61.8 51.2,61.6 57.9,56.3 	"/>
	<polyline class="st9" points="81.9,56.2 88.3,57.6 102.7,47.2 	"/>
	<polyline class="st6" points="102.1,47.2 90.7,49.8 66.1,49.8 57.1,56.4 	"/>
	<polyline class="st6" points="89.4,49.4 95,43.4 69.5,43.2 66.3,49.6 89.9,49.6 82.1,56 58,56 66.1,49.8 58.7,43.6 46.4,51.4 
		57.8,55.9 	"/>
	<path class="st7" d="M75.4,64.6c-1.3,0-1.1,1.2-0.8,1.4c0-0.8,0.4-1,0.8-1c1.1,0,1,1.4,1,1.4c0,0.4-0.1,0.7-0.3,0.9
		c-0.4,0.4-1.1,0.4-1.1,0.4l0,0l0,0c0,0-0.2,0-0.4-0.1c-0.2-0.1-0.6-0.3-1.1-0.8c-1-1-1.6-1.3-2.4-1.3c-0.6,0-1.1,0.4-1.3,0.5
		c-0.2-0.2-0.7-0.5-1.3-0.5c-0.9,0-1.4,0.3-2.4,1.3c-0.5,0.5-0.9,0.7-1.1,0.8c-0.2,0.1-0.4,0.1-0.4,0.1l0,0l0,0c0,0-0.7,0-1.1-0.4
		c-0.2-0.2-0.3-0.5-0.3-0.9c0,0-0.1-1.4,1-1.4c0.4,0,0.8,0.1,0.8,1c0.2-0.2,0.5-1.4-0.8-1.4c-1.3,0-2,1.3-2,2c0,0.8,0.4,1.6,1,2.2
		c0.5,0.5,1.5,1.1,3.1,1.1c1.5,0,2.4-0.6,2.9-1.2c0.3-0.3,0.5-0.6,0.6-0.8c0.1,0.2,0.3,0.5,0.6,0.8c0.5,0.5,1.4,1.2,2.9,1.2
		c1.6,0,2.6-0.6,3.1-1.1c0.7-0.6,1-1.4,1-2.2C77.4,65.9,76.8,64.6,75.4,64.6z"/>
</g>
</svg>
